<svg xmlns="http://www.w3.org/2000/svg" width="1200" height="675" viewBox="0 0 1200 675">
  <defs>
    <linearGradient id="g" x1="0" y1="0" x2="1" y2="1">
      <stop offset="0%" stop-color="#312e81"/>
      <stop offset="100%" stop-color="#7c3aed"/>
    </linearGradient>
    <pattern id="grid" width="40" height="40" patternUnits="userSpaceOnUse">
      <path d="M40 0H0v40" fill="none" stroke="#ffffff" stroke-opacity="0.06"/>
    </pattern>
  </defs>
  <rect width="1200" height="675" fill="url(#g)"/>
  <rect width="1200" height="675" fill="url(#grid)"/>
  <circle cx="950" cy="140" r="180" fill="#a78bfa" opacity="0.25"/>
  <circle cx="220" cy="560" r="140" fill="#6366f1" opacity="0.3"/>
  <g stroke="#c4b5fd" stroke-opacity="0.5" fill="#ede9fe">
    <circle cx="420" cy="240" r="10"/><circle cx="560" cy="180" r="10"/><circle cx="600" cy="330" r="10"/>
    <circle cx="740" cy="260" r="10"/><circle cx="520" cy="430" r="10"/>
    <path d="M420 240 560 180M560 180 740 260M420 240 600 330M600 330 740 260M600 330 520 430M560 180 600 330" fill="none"/>
  </g>
</svg>
